<mxfile host="app.diagrams.net" modified="2024-02-27T08:41:05.776Z" agent="Mozilla/5.0 (Windows NT 10.0; Win64; x64) AppleWebKit/537.36 (KHTML, like Gecko) Chrome/121.0.0.0 Safari/537.36" etag="ROv41nbikGq6FPY_bdTH" version="23.1.7" type="device">
  <diagram id="R2lEEEUBdFMjLlhIrx00" name="Page-1">
    <mxGraphModel dx="1173" dy="579" grid="1" gridSize="10" guides="1" tooltips="1" connect="1" arrows="1" fold="1" page="1" pageScale="1" pageWidth="850" pageHeight="1100" math="0" shadow="0" extFonts="Permanent Marker^https://fonts.googleapis.com/css?family=Permanent+Marker">
      <root>
        <mxCell id="0" />
        <mxCell id="1" parent="0" />
        <mxCell id="HaTQO-RwxUFXxskJyfmC-1" value="&lt;b&gt;&lt;font style=&quot;font-size: 18px;&quot;&gt;Quiz&lt;/font&gt;&lt;/b&gt;" style="rounded=0;whiteSpace=wrap;html=1;" parent="1" vertex="1">
          <mxGeometry x="390" y="240" width="130" height="80" as="geometry" />
        </mxCell>
        <mxCell id="HaTQO-RwxUFXxskJyfmC-2" value="&lt;u&gt;quizId&lt;/u&gt;" style="ellipse;whiteSpace=wrap;html=1;" parent="1" vertex="1">
          <mxGeometry x="280" y="120" width="70" height="40" as="geometry" />
        </mxCell>
        <mxCell id="HaTQO-RwxUFXxskJyfmC-3" value="title" style="ellipse;whiteSpace=wrap;html=1;" parent="1" vertex="1">
          <mxGeometry x="340" y="90" width="60" height="40" as="geometry" />
        </mxCell>
        <mxCell id="HaTQO-RwxUFXxskJyfmC-4" value="quizDecription" style="ellipse;whiteSpace=wrap;html=1;" parent="1" vertex="1">
          <mxGeometry x="410" y="90" width="90" height="40" as="geometry" />
        </mxCell>
        <mxCell id="HaTQO-RwxUFXxskJyfmC-5" value="numberOfQuestions" style="ellipse;whiteSpace=wrap;html=1;" parent="1" vertex="1">
          <mxGeometry x="505" y="90" width="125" height="50" as="geometry" />
        </mxCell>
        <mxCell id="HaTQO-RwxUFXxskJyfmC-6" value="maxmarks" style="ellipse;whiteSpace=wrap;html=1;" parent="1" vertex="1">
          <mxGeometry x="550" y="140" width="80" height="40" as="geometry" />
        </mxCell>
        <mxCell id="HaTQO-RwxUFXxskJyfmC-7" value="isactive" style="ellipse;whiteSpace=wrap;html=1;" parent="1" vertex="1">
          <mxGeometry x="560" y="190" width="80" height="40" as="geometry" />
        </mxCell>
        <mxCell id="HaTQO-RwxUFXxskJyfmC-8" value="categoryid" style="ellipse;whiteSpace=wrap;html=1;" parent="1" vertex="1">
          <mxGeometry x="260" y="170" width="70" height="50" as="geometry" />
        </mxCell>
        <mxCell id="HaTQO-RwxUFXxskJyfmC-9" value="" style="endArrow=none;html=1;rounded=0;entryX=0.5;entryY=1;entryDx=0;entryDy=0;" parent="1" target="HaTQO-RwxUFXxskJyfmC-4" edge="1">
          <mxGeometry width="50" height="50" relative="1" as="geometry">
            <mxPoint x="450" y="240" as="sourcePoint" />
            <mxPoint x="470" y="220" as="targetPoint" />
          </mxGeometry>
        </mxCell>
        <mxCell id="HaTQO-RwxUFXxskJyfmC-10" value="" style="endArrow=none;html=1;rounded=0;entryX=0.278;entryY=0.98;entryDx=0;entryDy=0;exitX=0.454;exitY=-0.012;exitDx=0;exitDy=0;exitPerimeter=0;entryPerimeter=0;" parent="1" source="HaTQO-RwxUFXxskJyfmC-1" target="HaTQO-RwxUFXxskJyfmC-5" edge="1">
          <mxGeometry width="50" height="50" relative="1" as="geometry">
            <mxPoint x="456" y="252" as="sourcePoint" />
            <mxPoint x="455" y="140" as="targetPoint" />
          </mxGeometry>
        </mxCell>
        <mxCell id="HaTQO-RwxUFXxskJyfmC-11" value="" style="endArrow=none;html=1;rounded=0;entryX=0.075;entryY=0.725;entryDx=0;entryDy=0;exitX=0.438;exitY=0;exitDx=0;exitDy=0;exitPerimeter=0;entryPerimeter=0;" parent="1" source="HaTQO-RwxUFXxskJyfmC-1" target="HaTQO-RwxUFXxskJyfmC-6" edge="1">
          <mxGeometry width="50" height="50" relative="1" as="geometry">
            <mxPoint x="459" y="249" as="sourcePoint" />
            <mxPoint x="525" y="151" as="targetPoint" />
          </mxGeometry>
        </mxCell>
        <mxCell id="HaTQO-RwxUFXxskJyfmC-12" value="" style="endArrow=none;html=1;rounded=0;entryX=0;entryY=0.5;entryDx=0;entryDy=0;" parent="1" target="HaTQO-RwxUFXxskJyfmC-7" edge="1">
          <mxGeometry width="50" height="50" relative="1" as="geometry">
            <mxPoint x="450" y="240" as="sourcePoint" />
            <mxPoint x="556" y="179" as="targetPoint" />
          </mxGeometry>
        </mxCell>
        <mxCell id="HaTQO-RwxUFXxskJyfmC-13" value="" style="endArrow=none;html=1;rounded=0;entryX=0.683;entryY=0.95;entryDx=0;entryDy=0;entryPerimeter=0;" parent="1" target="HaTQO-RwxUFXxskJyfmC-3" edge="1">
          <mxGeometry width="50" height="50" relative="1" as="geometry">
            <mxPoint x="450" y="240" as="sourcePoint" />
            <mxPoint x="455" y="140" as="targetPoint" />
          </mxGeometry>
        </mxCell>
        <mxCell id="HaTQO-RwxUFXxskJyfmC-14" value="" style="endArrow=none;html=1;rounded=0;entryX=1;entryY=1;entryDx=0;entryDy=0;" parent="1" target="HaTQO-RwxUFXxskJyfmC-2" edge="1">
          <mxGeometry width="50" height="50" relative="1" as="geometry">
            <mxPoint x="450" y="240" as="sourcePoint" />
            <mxPoint x="350" y="150" as="targetPoint" />
          </mxGeometry>
        </mxCell>
        <mxCell id="HaTQO-RwxUFXxskJyfmC-15" value="" style="endArrow=none;html=1;rounded=0;entryX=1;entryY=0.5;entryDx=0;entryDy=0;exitX=0.446;exitY=0.013;exitDx=0;exitDy=0;exitPerimeter=0;" parent="1" source="HaTQO-RwxUFXxskJyfmC-1" target="HaTQO-RwxUFXxskJyfmC-8" edge="1">
          <mxGeometry width="50" height="50" relative="1" as="geometry">
            <mxPoint x="399" y="282" as="sourcePoint" />
            <mxPoint x="330" y="170" as="targetPoint" />
          </mxGeometry>
        </mxCell>
        <mxCell id="HaTQO-RwxUFXxskJyfmC-16" value="&lt;b&gt;&lt;font style=&quot;font-size: 18px;&quot;&gt;Category&lt;/font&gt;&lt;/b&gt;" style="rounded=0;whiteSpace=wrap;html=1;" parent="1" vertex="1">
          <mxGeometry x="130" y="380" width="130" height="80" as="geometry" />
        </mxCell>
        <mxCell id="HaTQO-RwxUFXxskJyfmC-17" value="&lt;u&gt;categoryId&lt;/u&gt;" style="ellipse;whiteSpace=wrap;html=1;" parent="1" vertex="1">
          <mxGeometry x="30" y="330" width="70" height="40" as="geometry" />
        </mxCell>
        <mxCell id="HaTQO-RwxUFXxskJyfmC-18" value="categoryTitle" style="ellipse;whiteSpace=wrap;html=1;" parent="1" vertex="1">
          <mxGeometry x="50" y="260" width="80" height="40" as="geometry" />
        </mxCell>
        <mxCell id="HaTQO-RwxUFXxskJyfmC-19" value="categoryDescription" style="ellipse;whiteSpace=wrap;html=1;" parent="1" vertex="1">
          <mxGeometry x="150" y="240" width="130" height="50" as="geometry" />
        </mxCell>
        <mxCell id="HaTQO-RwxUFXxskJyfmC-20" value="" style="endArrow=none;html=1;rounded=0;entryX=0.971;entryY=0.675;entryDx=0;entryDy=0;exitX=0.462;exitY=0;exitDx=0;exitDy=0;exitPerimeter=0;entryPerimeter=0;" parent="1" source="HaTQO-RwxUFXxskJyfmC-16" target="HaTQO-RwxUFXxskJyfmC-17" edge="1">
          <mxGeometry width="50" height="50" relative="1" as="geometry">
            <mxPoint x="198" y="380" as="sourcePoint" />
            <mxPoint x="80" y="329" as="targetPoint" />
          </mxGeometry>
        </mxCell>
        <mxCell id="HaTQO-RwxUFXxskJyfmC-21" value="" style="endArrow=none;html=1;rounded=0;entryX=0.733;entryY=1;entryDx=0;entryDy=0;entryPerimeter=0;" parent="1" target="HaTQO-RwxUFXxskJyfmC-18" edge="1">
          <mxGeometry width="50" height="50" relative="1" as="geometry">
            <mxPoint x="190" y="380" as="sourcePoint" />
            <mxPoint x="112" y="319" as="targetPoint" />
          </mxGeometry>
        </mxCell>
        <mxCell id="HaTQO-RwxUFXxskJyfmC-22" value="" style="endArrow=none;html=1;rounded=0;entryX=0.5;entryY=1;entryDx=0;entryDy=0;exitX=0.454;exitY=0;exitDx=0;exitDy=0;exitPerimeter=0;" parent="1" source="HaTQO-RwxUFXxskJyfmC-16" target="HaTQO-RwxUFXxskJyfmC-19" edge="1">
          <mxGeometry width="50" height="50" relative="1" as="geometry">
            <mxPoint x="280" y="351" as="sourcePoint" />
            <mxPoint x="162" y="300" as="targetPoint" />
          </mxGeometry>
        </mxCell>
        <mxCell id="HaTQO-RwxUFXxskJyfmC-23" value="has" style="rhombus;whiteSpace=wrap;html=1;" parent="1" vertex="1">
          <mxGeometry x="340" y="380" width="60" height="60" as="geometry" />
        </mxCell>
        <mxCell id="HaTQO-RwxUFXxskJyfmC-24" value="" style="endArrow=none;html=1;rounded=0;entryX=0;entryY=0.5;entryDx=0;entryDy=0;exitX=1.008;exitY=0.388;exitDx=0;exitDy=0;exitPerimeter=0;" parent="1" source="HaTQO-RwxUFXxskJyfmC-16" target="HaTQO-RwxUFXxskJyfmC-23" edge="1">
          <mxGeometry width="50" height="50" relative="1" as="geometry">
            <mxPoint x="250" y="360" as="sourcePoint" />
            <mxPoint x="300" y="310" as="targetPoint" />
          </mxGeometry>
        </mxCell>
        <mxCell id="HaTQO-RwxUFXxskJyfmC-26" value="1" style="text;html=1;strokeColor=none;fillColor=none;align=center;verticalAlign=middle;whiteSpace=wrap;rounded=0;" parent="1" vertex="1">
          <mxGeometry x="260" y="390" width="20" height="20" as="geometry" />
        </mxCell>
        <mxCell id="HaTQO-RwxUFXxskJyfmC-28" value="" style="endArrow=none;html=1;rounded=0;entryX=1;entryY=0;entryDx=0;entryDy=0;exitX=1;exitY=0.5;exitDx=0;exitDy=0;" parent="1" source="HaTQO-RwxUFXxskJyfmC-23" target="HaTQO-RwxUFXxskJyfmC-29" edge="1">
          <mxGeometry width="50" height="50" relative="1" as="geometry">
            <mxPoint x="400" y="410" as="sourcePoint" />
            <mxPoint x="391.30999999999995" y="360.39" as="targetPoint" />
            <Array as="points">
              <mxPoint x="439" y="410" />
            </Array>
          </mxGeometry>
        </mxCell>
        <mxCell id="HaTQO-RwxUFXxskJyfmC-29" value="n" style="text;html=1;strokeColor=none;fillColor=none;align=center;verticalAlign=middle;whiteSpace=wrap;rounded=0;" parent="1" vertex="1">
          <mxGeometry x="410" y="320" width="30" height="20" as="geometry" />
        </mxCell>
        <mxCell id="HaTQO-RwxUFXxskJyfmC-30" value="&lt;b&gt;&lt;font style=&quot;font-size: 18px;&quot;&gt;Question&lt;/font&gt;&lt;/b&gt;" style="rounded=0;whiteSpace=wrap;html=1;" parent="1" vertex="1">
          <mxGeometry x="605" y="560" width="130" height="80" as="geometry" />
        </mxCell>
        <mxCell id="HaTQO-RwxUFXxskJyfmC-31" value="&lt;u&gt;questionid&lt;/u&gt;" style="ellipse;whiteSpace=wrap;html=1;direction=west;" parent="1" vertex="1">
          <mxGeometry x="520" y="460" width="60" height="40" as="geometry" />
        </mxCell>
        <mxCell id="HaTQO-RwxUFXxskJyfmC-32" value="content" style="ellipse;whiteSpace=wrap;html=1;" parent="1" vertex="1">
          <mxGeometry x="550" y="420" width="60" height="40" as="geometry" />
        </mxCell>
        <mxCell id="HaTQO-RwxUFXxskJyfmC-33" value="option 1" style="ellipse;whiteSpace=wrap;html=1;" parent="1" vertex="1">
          <mxGeometry x="610" y="400" width="60" height="40" as="geometry" />
        </mxCell>
        <mxCell id="HaTQO-RwxUFXxskJyfmC-34" value="option 2" style="ellipse;whiteSpace=wrap;html=1;" parent="1" vertex="1">
          <mxGeometry x="675" y="400" width="60" height="40" as="geometry" />
        </mxCell>
        <mxCell id="HaTQO-RwxUFXxskJyfmC-35" value="option 3" style="ellipse;whiteSpace=wrap;html=1;" parent="1" vertex="1">
          <mxGeometry x="740" y="410" width="60" height="40" as="geometry" />
        </mxCell>
        <mxCell id="HaTQO-RwxUFXxskJyfmC-36" value="option 4" style="ellipse;whiteSpace=wrap;html=1;" parent="1" vertex="1">
          <mxGeometry x="770" y="450" width="60" height="40" as="geometry" />
        </mxCell>
        <mxCell id="HaTQO-RwxUFXxskJyfmC-37" value="answer" style="ellipse;whiteSpace=wrap;html=1;" parent="1" vertex="1">
          <mxGeometry x="780" y="490" width="60" height="40" as="geometry" />
        </mxCell>
        <mxCell id="HaTQO-RwxUFXxskJyfmC-38" value="quizid" style="ellipse;whiteSpace=wrap;html=1;direction=west;" parent="1" vertex="1">
          <mxGeometry x="500" y="500" width="60" height="40" as="geometry" />
        </mxCell>
        <mxCell id="HaTQO-RwxUFXxskJyfmC-39" value="" style="endArrow=none;html=1;rounded=0;entryX=0.5;entryY=1;entryDx=0;entryDy=0;exitX=0.5;exitY=0;exitDx=0;exitDy=0;" parent="1" source="HaTQO-RwxUFXxskJyfmC-30" edge="1">
          <mxGeometry width="50" height="50" relative="1" as="geometry">
            <mxPoint x="660" y="540" as="sourcePoint" />
            <mxPoint x="641" y="440" as="targetPoint" />
          </mxGeometry>
        </mxCell>
        <mxCell id="HaTQO-RwxUFXxskJyfmC-41" value="" style="endArrow=none;html=1;rounded=0;entryX=0.233;entryY=1.05;entryDx=0;entryDy=0;exitX=0.5;exitY=0;exitDx=0;exitDy=0;entryPerimeter=0;" parent="1" source="HaTQO-RwxUFXxskJyfmC-30" target="HaTQO-RwxUFXxskJyfmC-34" edge="1">
          <mxGeometry width="50" height="50" relative="1" as="geometry">
            <mxPoint x="675" y="560" as="sourcePoint" />
            <mxPoint x="651" y="450" as="targetPoint" />
          </mxGeometry>
        </mxCell>
        <mxCell id="HaTQO-RwxUFXxskJyfmC-42" value="" style="endArrow=none;html=1;rounded=0;entryX=0;entryY=1;entryDx=0;entryDy=0;exitX=0.5;exitY=0;exitDx=0;exitDy=0;" parent="1" source="HaTQO-RwxUFXxskJyfmC-30" target="HaTQO-RwxUFXxskJyfmC-35" edge="1">
          <mxGeometry width="50" height="50" relative="1" as="geometry">
            <mxPoint x="675" y="560" as="sourcePoint" />
            <mxPoint x="704" y="452" as="targetPoint" />
          </mxGeometry>
        </mxCell>
        <mxCell id="HaTQO-RwxUFXxskJyfmC-43" value="" style="endArrow=none;html=1;rounded=0;entryX=0.017;entryY=0.775;entryDx=0;entryDy=0;exitX=0.5;exitY=0;exitDx=0;exitDy=0;entryPerimeter=0;" parent="1" source="HaTQO-RwxUFXxskJyfmC-30" target="HaTQO-RwxUFXxskJyfmC-36" edge="1">
          <mxGeometry width="50" height="50" relative="1" as="geometry">
            <mxPoint x="675" y="560" as="sourcePoint" />
            <mxPoint x="752" y="464" as="targetPoint" />
          </mxGeometry>
        </mxCell>
        <mxCell id="HaTQO-RwxUFXxskJyfmC-44" value="" style="endArrow=none;html=1;rounded=0;entryX=0;entryY=0.5;entryDx=0;entryDy=0;exitX=0.5;exitY=0;exitDx=0;exitDy=0;" parent="1" source="HaTQO-RwxUFXxskJyfmC-30" target="HaTQO-RwxUFXxskJyfmC-37" edge="1">
          <mxGeometry width="50" height="50" relative="1" as="geometry">
            <mxPoint x="670" y="550" as="sourcePoint" />
            <mxPoint x="781" y="501" as="targetPoint" />
          </mxGeometry>
        </mxCell>
        <mxCell id="HaTQO-RwxUFXxskJyfmC-46" value="" style="endArrow=none;html=1;rounded=0;entryX=1;entryY=1;entryDx=0;entryDy=0;exitX=0.5;exitY=0;exitDx=0;exitDy=0;" parent="1" source="HaTQO-RwxUFXxskJyfmC-30" target="HaTQO-RwxUFXxskJyfmC-32" edge="1">
          <mxGeometry width="50" height="50" relative="1" as="geometry">
            <mxPoint x="675" y="560" as="sourcePoint" />
            <mxPoint x="651" y="450" as="targetPoint" />
          </mxGeometry>
        </mxCell>
        <mxCell id="HaTQO-RwxUFXxskJyfmC-47" value="" style="endArrow=none;html=1;rounded=0;entryX=0;entryY=0;entryDx=0;entryDy=0;" parent="1" target="HaTQO-RwxUFXxskJyfmC-31" edge="1">
          <mxGeometry width="50" height="50" relative="1" as="geometry">
            <mxPoint x="670" y="560" as="sourcePoint" />
            <mxPoint x="570" y="490" as="targetPoint" />
          </mxGeometry>
        </mxCell>
        <mxCell id="HaTQO-RwxUFXxskJyfmC-48" value="" style="endArrow=none;html=1;rounded=0;entryX=0;entryY=0.5;entryDx=0;entryDy=0;" parent="1" target="HaTQO-RwxUFXxskJyfmC-38" edge="1">
          <mxGeometry width="50" height="50" relative="1" as="geometry">
            <mxPoint x="670" y="560" as="sourcePoint" />
            <mxPoint x="589" y="500" as="targetPoint" />
          </mxGeometry>
        </mxCell>
        <mxCell id="HaTQO-RwxUFXxskJyfmC-49" value="has" style="rhombus;whiteSpace=wrap;html=1;" parent="1" vertex="1">
          <mxGeometry x="440" y="570" width="60" height="60" as="geometry" />
        </mxCell>
        <mxCell id="HaTQO-RwxUFXxskJyfmC-50" value="" style="endArrow=none;html=1;rounded=0;entryX=0.592;entryY=1.025;entryDx=0;entryDy=0;exitX=0.5;exitY=0;exitDx=0;exitDy=0;entryPerimeter=0;" parent="1" source="HaTQO-RwxUFXxskJyfmC-49" target="HaTQO-RwxUFXxskJyfmC-1" edge="1">
          <mxGeometry width="50" height="50" relative="1" as="geometry">
            <mxPoint x="410" y="420" as="sourcePoint" />
            <mxPoint x="450" y="330" as="targetPoint" />
            <Array as="points" />
          </mxGeometry>
        </mxCell>
        <mxCell id="HaTQO-RwxUFXxskJyfmC-51" value="" style="endArrow=none;html=1;rounded=0;entryX=0;entryY=0.5;entryDx=0;entryDy=0;exitX=1;exitY=0.5;exitDx=0;exitDy=0;" parent="1" source="HaTQO-RwxUFXxskJyfmC-49" target="HaTQO-RwxUFXxskJyfmC-30" edge="1">
          <mxGeometry width="50" height="50" relative="1" as="geometry">
            <mxPoint x="480" y="570" as="sourcePoint" />
            <mxPoint x="477" y="332" as="targetPoint" />
            <Array as="points" />
          </mxGeometry>
        </mxCell>
        <mxCell id="HaTQO-RwxUFXxskJyfmC-52" value="n" style="text;html=1;strokeColor=none;fillColor=none;align=center;verticalAlign=middle;whiteSpace=wrap;rounded=0;" parent="1" vertex="1">
          <mxGeometry x="575" y="570" width="30" height="20" as="geometry" />
        </mxCell>
        <mxCell id="HaTQO-RwxUFXxskJyfmC-53" value="1" style="text;html=1;strokeColor=none;fillColor=none;align=center;verticalAlign=middle;whiteSpace=wrap;rounded=0;" parent="1" vertex="1">
          <mxGeometry x="470" y="320" width="20" height="20" as="geometry" />
        </mxCell>
        <mxCell id="HaTQO-RwxUFXxskJyfmC-54" value="correctanswer" style="ellipse;whiteSpace=wrap;html=1;" parent="1" vertex="1">
          <mxGeometry x="790" y="530" width="80" height="40" as="geometry" />
        </mxCell>
        <mxCell id="HaTQO-RwxUFXxskJyfmC-55" value="" style="endArrow=none;html=1;rounded=0;entryX=0;entryY=0.5;entryDx=0;entryDy=0;" parent="1" target="HaTQO-RwxUFXxskJyfmC-54" edge="1">
          <mxGeometry width="50" height="50" relative="1" as="geometry">
            <mxPoint x="680" y="560" as="sourcePoint" />
            <mxPoint x="790" y="530" as="targetPoint" />
          </mxGeometry>
        </mxCell>
        <mxCell id="a7hrakSgc30sOQPF1zEW-1" value="&lt;font size=&quot;1&quot; style=&quot;&quot;&gt;&lt;b style=&quot;font-size: 18px;&quot;&gt;SubCategory&lt;/b&gt;&lt;/font&gt;" style="rounded=0;whiteSpace=wrap;html=1;" vertex="1" parent="1">
          <mxGeometry x="210" y="750" width="120" height="60" as="geometry" />
        </mxCell>
        <mxCell id="a7hrakSgc30sOQPF1zEW-2" value="subCategoryId" style="ellipse;whiteSpace=wrap;html=1;" vertex="1" parent="1">
          <mxGeometry x="10" y="650" width="90" height="40" as="geometry" />
        </mxCell>
        <mxCell id="a7hrakSgc30sOQPF1zEW-6" value="" style="endArrow=none;html=1;rounded=0;entryX=0;entryY=0.25;entryDx=0;entryDy=0;" edge="1" parent="1" source="a7hrakSgc30sOQPF1zEW-2">
          <mxGeometry width="50" height="50" relative="1" as="geometry">
            <mxPoint x="143.2302934365771" y="659.3001333802624" as="sourcePoint" />
            <mxPoint x="246.77" y="750" as="targetPoint" />
          </mxGeometry>
        </mxCell>
        <mxCell id="a7hrakSgc30sOQPF1zEW-8" value="subCategoryTitle" style="ellipse;whiteSpace=wrap;html=1;" vertex="1" parent="1">
          <mxGeometry x="30" y="610" width="145" height="40" as="geometry" />
        </mxCell>
        <mxCell id="a7hrakSgc30sOQPF1zEW-9" value="" style="endArrow=none;html=1;rounded=0;entryX=0.5;entryY=1;entryDx=0;entryDy=0;exitX=0.5;exitY=0;exitDx=0;exitDy=0;exitPerimeter=0;" edge="1" parent="1" source="a7hrakSgc30sOQPF1zEW-1" target="a7hrakSgc30sOQPF1zEW-8">
          <mxGeometry width="50" height="50" relative="1" as="geometry">
            <mxPoint x="260" y="740" as="sourcePoint" />
            <mxPoint x="280" y="670" as="targetPoint" />
          </mxGeometry>
        </mxCell>
        <mxCell id="a7hrakSgc30sOQPF1zEW-11" value="subCategoryDescription" style="ellipse;whiteSpace=wrap;html=1;" vertex="1" parent="1">
          <mxGeometry x="155" y="585" width="140" height="30" as="geometry" />
        </mxCell>
        <mxCell id="a7hrakSgc30sOQPF1zEW-12" value="" style="endArrow=none;html=1;rounded=0;exitX=0.833;exitY=0;exitDx=0;exitDy=0;exitPerimeter=0;entryX=0.24;entryY=1.056;entryDx=0;entryDy=0;entryPerimeter=0;" edge="1" parent="1">
          <mxGeometry width="50" height="50" relative="1" as="geometry">
            <mxPoint x="280.00000000000006" y="750" as="sourcePoint" />
            <mxPoint x="208.60000000000014" y="616.6800000000001" as="targetPoint" />
          </mxGeometry>
        </mxCell>
        <mxCell id="a7hrakSgc30sOQPF1zEW-13" value="categoryid" style="ellipse;whiteSpace=wrap;html=1;" vertex="1" parent="1">
          <mxGeometry y="700" width="70" height="50" as="geometry" />
        </mxCell>
        <mxCell id="a7hrakSgc30sOQPF1zEW-14" value="" style="endArrow=none;html=1;rounded=0;exitX=1;exitY=0.5;exitDx=0;exitDy=0;entryX=0.25;entryY=0;entryDx=0;entryDy=0;" edge="1" parent="1" source="a7hrakSgc30sOQPF1zEW-13" target="a7hrakSgc30sOQPF1zEW-1">
          <mxGeometry width="50" height="50" relative="1" as="geometry">
            <mxPoint x="100" y="790" as="sourcePoint" />
            <mxPoint x="190" y="780" as="targetPoint" />
          </mxGeometry>
        </mxCell>
        <mxCell id="a7hrakSgc30sOQPF1zEW-15" value="has" style="rhombus;whiteSpace=wrap;html=1;" vertex="1" parent="1">
          <mxGeometry x="295" y="520" width="60" height="60" as="geometry" />
        </mxCell>
        <mxCell id="a7hrakSgc30sOQPF1zEW-16" value="" style="endArrow=none;html=1;rounded=0;" edge="1" parent="1">
          <mxGeometry width="50" height="50" relative="1" as="geometry">
            <mxPoint x="324.33" y="520" as="sourcePoint" />
            <mxPoint x="320" y="450" as="targetPoint" />
          </mxGeometry>
        </mxCell>
        <mxCell id="a7hrakSgc30sOQPF1zEW-18" value="" style="endArrow=none;html=1;rounded=0;exitX=1;exitY=0.875;exitDx=0;exitDy=0;exitPerimeter=0;" edge="1" parent="1" source="HaTQO-RwxUFXxskJyfmC-16">
          <mxGeometry width="50" height="50" relative="1" as="geometry">
            <mxPoint x="270" y="450" as="sourcePoint" />
            <mxPoint x="320" y="450" as="targetPoint" />
          </mxGeometry>
        </mxCell>
        <mxCell id="a7hrakSgc30sOQPF1zEW-20" value="1" style="text;html=1;align=center;verticalAlign=middle;resizable=0;points=[];autosize=1;strokeColor=none;fillColor=none;" vertex="1" parent="1">
          <mxGeometry x="265" y="418" width="30" height="30" as="geometry" />
        </mxCell>
        <mxCell id="a7hrakSgc30sOQPF1zEW-22" value="" style="endArrow=none;html=1;rounded=0;" edge="1" parent="1">
          <mxGeometry width="50" height="50" relative="1" as="geometry">
            <mxPoint x="398.67" y="705" as="sourcePoint" />
            <mxPoint x="398.67" y="540" as="targetPoint" />
          </mxGeometry>
        </mxCell>
        <mxCell id="a7hrakSgc30sOQPF1zEW-23" value="" style="endArrow=none;html=1;rounded=0;exitX=0.917;exitY=0.333;exitDx=0;exitDy=0;exitPerimeter=0;" edge="1" parent="1" source="a7hrakSgc30sOQPF1zEW-15">
          <mxGeometry width="50" height="50" relative="1" as="geometry">
            <mxPoint x="370" y="540" as="sourcePoint" />
            <mxPoint x="400" y="540" as="targetPoint" />
          </mxGeometry>
        </mxCell>
        <mxCell id="a7hrakSgc30sOQPF1zEW-24" value="" style="endArrow=none;html=1;rounded=0;" edge="1" parent="1">
          <mxGeometry width="50" height="50" relative="1" as="geometry">
            <mxPoint x="398.67" y="760" as="sourcePoint" />
            <mxPoint x="398.67" y="700" as="targetPoint" />
          </mxGeometry>
        </mxCell>
        <mxCell id="a7hrakSgc30sOQPF1zEW-25" value="" style="endArrow=none;html=1;rounded=0;" edge="1" parent="1">
          <mxGeometry width="50" height="50" relative="1" as="geometry">
            <mxPoint x="330" y="760" as="sourcePoint" />
            <mxPoint x="400" y="760" as="targetPoint" />
          </mxGeometry>
        </mxCell>
        <mxCell id="a7hrakSgc30sOQPF1zEW-28" value="n" style="text;html=1;align=center;verticalAlign=middle;resizable=0;points=[];autosize=1;strokeColor=none;fillColor=none;" vertex="1" parent="1">
          <mxGeometry x="345" y="728" width="30" height="30" as="geometry" />
        </mxCell>
        <mxCell id="a7hrakSgc30sOQPF1zEW-29" value="subCategoryId" style="ellipse;whiteSpace=wrap;html=1;" vertex="1" parent="1">
          <mxGeometry x="800" y="575" width="90" height="40" as="geometry" />
        </mxCell>
        <mxCell id="a7hrakSgc30sOQPF1zEW-30" value="categoryid" style="ellipse;whiteSpace=wrap;html=1;" vertex="1" parent="1">
          <mxGeometry x="810" y="630" width="80" height="45" as="geometry" />
        </mxCell>
        <mxCell id="a7hrakSgc30sOQPF1zEW-32" value="" style="endArrow=none;html=1;rounded=0;exitX=1;exitY=0.5;exitDx=0;exitDy=0;" edge="1" parent="1" source="HaTQO-RwxUFXxskJyfmC-30">
          <mxGeometry width="50" height="50" relative="1" as="geometry">
            <mxPoint x="740" y="600" as="sourcePoint" />
            <mxPoint x="800" y="595" as="targetPoint" />
          </mxGeometry>
        </mxCell>
        <mxCell id="a7hrakSgc30sOQPF1zEW-33" value="" style="endArrow=none;html=1;rounded=0;exitX=1;exitY=0.5;exitDx=0;exitDy=0;entryX=0;entryY=0.5;entryDx=0;entryDy=0;" edge="1" parent="1" target="a7hrakSgc30sOQPF1zEW-30">
          <mxGeometry width="50" height="50" relative="1" as="geometry">
            <mxPoint x="735" y="632.5" as="sourcePoint" />
            <mxPoint x="800" y="627.5" as="targetPoint" />
          </mxGeometry>
        </mxCell>
        <mxCell id="a7hrakSgc30sOQPF1zEW-34" value="difficultyLevel" style="ellipse;whiteSpace=wrap;html=1;" vertex="1" parent="1">
          <mxGeometry x="820" y="683" width="90" height="45" as="geometry" />
        </mxCell>
        <mxCell id="a7hrakSgc30sOQPF1zEW-35" value="" style="endArrow=none;html=1;rounded=0;exitX=1;exitY=0.5;exitDx=0;exitDy=0;entryX=-0.029;entryY=0.311;entryDx=0;entryDy=0;entryPerimeter=0;" edge="1" parent="1" target="a7hrakSgc30sOQPF1zEW-34">
          <mxGeometry width="50" height="50" relative="1" as="geometry">
            <mxPoint x="715" y="642.25" as="sourcePoint" />
            <mxPoint x="790" y="662.75" as="targetPoint" />
          </mxGeometry>
        </mxCell>
      </root>
    </mxGraphModel>
  </diagram>
</mxfile>
